<?xml version="1.0" encoding="utf-8"?>
<!-- Generator: Adobe Illustrator 24.0.3, SVG Export Plug-In . SVG Version: 6.00 Build 0)  -->
<svg version="1.1"
	 id="svg9616" xmlns:cc="http://creativecommons.org/ns#" xmlns:dc="http://purl.org/dc/elements/1.1/" xmlns:inkscape="http://www.inkscape.org/namespaces/inkscape" xmlns:rdf="http://www.w3.org/1999/02/22-rdf-syntax-ns#" xmlns:sodipodi="http://sodipodi.sourceforge.net/DTD/sodipodi-0.dtd" xmlns:svg="http://www.w3.org/2000/svg"
	 xmlns="http://www.w3.org/2000/svg" xmlns:xlink="http://www.w3.org/1999/xlink" x="0px" y="0px" viewBox="0 0 588.3 959.7"
	 style="enable-background:new 0 0 588.3 959.7;" xml:space="preserve">
<style type="text/css">
	.st0{fill:#2E3436;}
	.st1{fill:url(#rect9640_1_);}
	.st2{fill:#888A85;}
	.st3{fill:#73D216;}
	.st4{fill:#482A50;}
	.st5{fill:url(#path10165_1_);}
	.st6{fill:#555753;}
	.st7{fill:url(#rect10169_1_);}
	.st8{fill:url(#rect10174_3_);}
	.st9{fill:url(#rect10174_6_);}
	.st10{fill:url(#rect10174_7_);}
	.st11{fill:url(#rect10187_1_);}
	.st12{fill:url(#rect10187_3_);}
	.st13{fill:none;stroke:#555753;stroke-width:6;}
	.st14{fill:none;stroke:#204A87;stroke-width:3;}
	.st15{fill:none;stroke:#5C3566;stroke-width:3;}
	.st16{fill:#204A87;}
	.st17{fill:#00006A;}
	.st18{fill:#EEEEEC;}
	.st19{fill:url(#rect10174_8_);}
	.st20{fill:url(#rect10174_9_);}
</style>
<defs>
	
		<inkscape:perspective  id="perspective9624" inkscape:persp3d-origin="372.04724 : 350.78739 : 1" inkscape:vp_x="0 : 526.18109 : 1" inkscape:vp_y="0 : 1000 : 0" inkscape:vp_z="744.09448 : 526.18109 : 1" sodipodi:type="inkscape:persp3d">
		</inkscape:perspective>
	
		<inkscape:perspective  id="perspective9634" inkscape:persp3d-origin="0.5 : 0.33333333 : 1" inkscape:vp_x="0 : 0.5 : 1" inkscape:vp_y="0 : 1000 : 0" inkscape:vp_z="1 : 0.5 : 1" sodipodi:type="inkscape:persp3d">
		</inkscape:perspective>
	
		<inkscape:perspective  id="perspective10426" inkscape:persp3d-origin="0.5 : 0.33333333 : 1" inkscape:vp_x="0 : 0.5 : 1" inkscape:vp_y="0 : 1000 : 0" inkscape:vp_z="1 : 0.5 : 1" sodipodi:type="inkscape:persp3d">
		</inkscape:perspective>
</defs>
<sodipodi:namedview  bordercolor="#666666" borderopacity="1.0" id="base" inkscape:current-layer="layer3" inkscape:cx="-44.801869" inkscape:cy="563.11758" inkscape:document-units="px" inkscape:pageopacity="0.0" inkscape:pageshadow="2" inkscape:window-height="1030" inkscape:window-maximized="1" inkscape:window-width="1920" inkscape:window-x="-8" inkscape:window-y="-8" inkscape:zoom="0.49497475" pagecolor="#ffffff" showgrid="false">
	</sodipodi:namedview>
<g id="path10689" sodipodi:nodetypes="ccccaaccccc">
	<path d="M38.2,17.7h512c11.3,0,20.4,9.1,20.4,20.4v826.7c-7.6,18.3-15.6,27.1-27.5,36.7c-20.3,16.3-46,25.6-71.1,32.2
		c-29.1,7.7-60,5.5-89.9,8.2H38.2c-11.3,0-20.4-9.1-20.4-20.4V38.2C17.7,26.8,26.8,17.7,38.2,17.7L38.2,17.7z"/>
</g>
<path id="path10396" sodipodi:nodetypes="ccccaaccccc" class="st0" d="M38.2,17.7h512c11.3,0,20.4,9.1,20.4,20.4v826.7
	c-7.6,18.3-15.6,27.1-27.5,36.7c-20.3,16.3-46,25.6-71.1,32.2c-29.1,7.7-60,5.5-89.9,8.2H38.2c-11.3,0-20.4-9.1-20.4-20.4V38.2
	C17.7,26.8,26.8,17.7,38.2,17.7L38.2,17.7z"/>
<linearGradient id="rect9640_1_" gradientUnits="userSpaceOnUse" x1="-467.6614" y1="-145.7457" x2="-450.4889" y2="761.7528" gradientTransform="matrix(1 0 0 1 745.44 166.5064)">
	<stop  offset="0" style="stop-color:#BABDB6"/>
	<stop  offset="1" style="stop-color:#AAAEA6"/>
</linearGradient>
<path id="rect9640" sodipodi:nodetypes="ccccaaccccc" class="st1" d="M30.2,3.7h512c11.3,0,20.4,9.1,20.4,20.4v826.7
	c-7.6,18.3-15.6,27.1-27.5,36.7c-20.3,16.3-46,25.6-71.1,32.2c-29.1,7.7-60,5.5-89.9,8.2H30.2c-11.3,0-20.4-9.1-20.4-20.4V24.2
	C9.7,12.8,18.8,3.7,30.2,3.7L30.2,3.7z"/>
<path id="rect10154" class="st2" d="M73.7,77.2c-11.2,0-20.3,9-20.3,20.2v323.8c0,11.2,9,20.3,20.3,20.3h69.8h306.8h13.8
	c37.2,0,67.2-29.9,67.2-67.2v-21.8c0.3-1.2,0.5-2.5,0.5-3.9V93.2c0-8.9-7.1-16-16-16h-65.5h-369H73.7z"/>
<path id="rect10161" class="st3" d="M87.9,120.5h407.2c7.3,0,13.2,4.1,13.2,9.2v258.4c0,5.1-5.9,9.2-13.2,9.2H87.9
	c-7.3,0-13.2-4.1-13.2-9.2V129.7C74.7,124.6,80.6,120.5,87.9,120.5z"/>
<path id="path10445" sodipodi:cx="-337.89603" sodipodi:cy="654.86713" sodipodi:rx="30.809652" sodipodi:ry="30.809652" sodipodi:type="arc" class="st4" d="
	M444.4,648.8c0,19-15.4,34.3-34.3,34.3c-19,0-34.3-15.4-34.3-34.3c0-19,15.4-34.3,34.3-34.3S444.4,629.8,444.4,648.8z"/>
<radialGradient id="path10165_1_" cx="-336.637" cy="508.0089" r="30.8097" gradientTransform="matrix(1.1148 0 0 1.1148 785.2248 84.7515)" gradientUnits="userSpaceOnUse">
	<stop  offset="0" style="stop-color:#5C3566"/>
	<stop  offset="1" style="stop-color:#5C3566;stop-opacity:0"/>
</radialGradient>
<path id="path10165" sodipodi:cx="-337.89603" sodipodi:cy="654.86713" sodipodi:rx="30.809652" sodipodi:ry="30.809652" sodipodi:type="arc" class="st5" d="
	M440.4,646.8c0,19-15.4,34.3-34.3,34.3c-19,0-34.3-15.4-34.3-34.3c0-19,15.4-34.3,34.3-34.3S440.4,627.8,440.4,646.8z"/>
<path id="path10447" sodipodi:cx="-337.89603" sodipodi:cy="654.86713" sodipodi:rx="30.809652" sodipodi:ry="30.809652" sodipodi:type="arc" class="st4" d="
	M538.3,606.4c0,19-15.4,34.3-34.3,34.3c-19,0-34.3-15.4-34.3-34.3S485,572,504,572C522.9,572,538.3,587.4,538.3,606.4z"/>
<path id="path10435" class="st6" d="M106,567c-1.7,0-3.1,1.4-3.1,3.1v41.2H61.7c-1.7,0-3.1,1.4-3.1,3.1V660c0,1.7,1.4,3.1,3.1,3.1
	h41.2v41.2c0,1.7,1.4,3.1,3.1,3.1h45.6c1.7,0,3.1-1.4,3.1-3.1v-41.2h41.2c1.7,0,3.1-1.4,3.1-3.1v-45.6c0-1.7-1.4-3.1-3.1-3.1h-41.2
	v-41.2c0-1.7-1.4-3.1-3.1-3.1L106,567L106,567z"/>
<radialGradient id="rect10169_1_" cx="-537.3068" cy="-116.588" r="70.2093" gradientTransform="matrix(0.2086 0 0 0.223 236.8822 661.1991)" gradientUnits="userSpaceOnUse">
	<stop  offset="0" style="stop-color:#2E3436"/>
	<stop  offset="1" style="stop-color:#25292B"/>
</radialGradient>
<path id="rect10169" class="st7" d="M102,565c-1.7,0-3.1,1.4-3.1,3.1v41.2H57.7c-1.7,0-3.1,1.4-3.1,3.1V658c0,1.7,1.4,3.1,3.1,3.1
	h41.2v41.2c0,1.7,1.4,3.1,3.1,3.1h45.6c1.7,0,3.1-1.4,3.1-3.1v-41.2h41.2c1.7,0,3.1-1.4,3.1-3.1v-45.6c0-1.7-1.4-3.1-3.1-3.1h-41.2
	v-41.2c0-1.7-1.4-3.1-3.1-3.1L102,565L102,565z"/>
<radialGradient id="rect10174_3_" cx="411.4527" cy="-62.8402" r="46.2761" gradientTransform="matrix(0.5077 0.8615 -0.1149 6.769771e-02 171.9351 517.0876)" gradientUnits="userSpaceOnUse">
	<stop  offset="0" style="stop-color:#555753"/>
	<stop  offset="1" style="stop-color:#3C3D3B"/>
</radialGradient>
<path id="rect10174" class="st8" d="M373,829.7l40.7,69c1.7,2.9,0.8,6.7-2.2,8.4l0,0c-2.9,1.7-6.7,0.8-8.4-2.2l-40.7-69
	c-1.7-2.9-0.8-6.7,2.2-8.4l0,0C367.5,825.8,371.3,826.8,373,829.7z"/>
<g id="use10182" transform="translate(-28.284271,15.152288)">
	<g id="use10180_1_" transform="translate(-27.779195,15.657364)">
		<g id="use10178_2_" transform="translate(-27.274118,15.657365)">
			<g id="use10176_3_" transform="translate(139.90613,-77.27667)">
				
					<radialGradient id="rect10174_6_" cx="351.5038" cy="710.9688" r="46.2298" gradientTransform="matrix(0.5077 0.8615 -0.1149 6.769771e-02 260.7635 532.926)" gradientUnits="userSpaceOnUse">
					<stop  offset="0" style="stop-color:#555753"/>
					<stop  offset="1" style="stop-color:#3C3D3B"/>
				</radialGradient>
				<path id="rect10174_4_" class="st9" d="M342.5,846.3l40.7,69c1.7,2.9,0.8,6.7-2.2,8.4l0,0c-2.9,1.7-6.7,0.8-8.4-2.2l-40.7-69
					c-1.7-2.9-0.8-6.7,2.2-8.4l0,0C337,842.4,340.8,843.3,342.5,846.3z"/>
			</g>
		</g>
	</g>
</g>
<g id="use10184" transform="translate(-28.789348,14.142136)">
	<g id="use10182_1_" transform="translate(-28.284271,15.152288)">
		<g id="use10180_2_" transform="translate(-27.779195,15.657364)">
			<g id="use10178_3_" transform="translate(-27.274118,15.657365)">
				<g id="use10176_4_" transform="translate(139.90613,-77.27667)">
					
						<radialGradient id="rect10174_7_" cx="385.9335" cy="-1.2287" r="46.2509" gradientTransform="matrix(0.5077 0.8615 -0.1149 6.769771e-02 215.7329 523.2235)" gradientUnits="userSpaceOnUse">
						<stop  offset="0" style="stop-color:#555753"/>
						<stop  offset="1" style="stop-color:#3C3D3B"/>
					</radialGradient>
					<path id="rect10174_5_" class="st10" d="M396.8,818l40.7,69c1.7,2.9,0.8,6.7-2.2,8.4l0,0c-2.9,1.7-6.7,0.8-8.4-2.2l-40.7-69
						c-1.7-2.9-0.8-6.7,2.2-8.4l0,0C391.3,814.1,395.1,815.1,396.8,818z"/>
				</g>
			</g>
		</g>
	</g>
</g>
<radialGradient id="rect10187_1_" cx="-664.0088" cy="-97.7453" r="36.0667" gradientTransform="matrix(0.89 -0.456 0.1084 0.2115 913.0429 488.3927)" gradientUnits="userSpaceOnUse">
	<stop  offset="0" style="stop-color:#555753"/>
	<stop  offset="1" style="stop-color:#3C3E3A"/>
</radialGradient>
<path id="rect10187" class="st11" d="M283.1,775.4l48.9-25.1c4.2-2.2,9.4-0.5,11.5,3.7l0,0c2.2,4.2,0.5,9.4-3.7,11.5l-48.9,25.1
	c-4.2,2.2-9.4,0.5-11.5-3.7l0,0C277.2,782.7,278.9,777.6,283.1,775.4z"/>
<g id="use10191" transform="translate(-96.428571,-0.35714289)">
	
		<radialGradient id="rect10187_3_" cx="-486.4795" cy="98.5766" r="36.0688" gradientTransform="matrix(0.89 -0.456 0.1084 0.2115 730.7542 531.9315)" gradientUnits="userSpaceOnUse">
		<stop  offset="0" style="stop-color:#555753"/>
		<stop  offset="1" style="stop-color:#3C3E3A"/>
	</radialGradient>
	<path id="rect10187_2_" class="st12" d="M280.1,779.6l48.9-25.1c4.2-2.2,9.4-0.5,11.5,3.7l0,0c2.2,4.2,0.5,9.4-3.7,11.5l-48.9,25.1
		c-4.2,2.2-9.4,0.5-11.5-3.7l0,0C274.2,786.9,275.9,781.7,280.1,779.6z"/>
</g>
<path id="path10193" class="st13" d="M9.7,49.4h552.9"/>
<path id="path10195" class="st13" d="M528.3,3.8v45.4"/>
<path id="path10197" class="st13" d="M56.9,4.4v44.9"/>
<path id="path10199" class="st14" d="M77.6,104.4h123.6"/>
<path id="path10201" class="st15" d="M77.6,93.7h123.6"/>
<path id="path10203" class="st14" d="M456.2,104.4h52.1"/>
<path id="path10205" class="st15" d="M456.2,93.7h52.1"/>
<g id="text10215" transform="matrix(0.98931535,-0.50940549,0.41139519,0.79896974,0,0)">
	<path id="path10256" class="st16" d="M49.4,912.4h9.5c1.6,0,2.8,0.4,3.6,1.2c0.8,0.8,1.3,1.8,1.3,2.9c0,1-0.3,1.8-0.9,2.5
		c-0.4,0.5-1,0.8-1.8,1.1c1.2,0.3,2,0.8,2.6,1.5s0.8,1.6,0.8,2.6c0,0.8-0.2,1.6-0.6,2.3c-0.4,0.7-0.9,1.2-1.6,1.6
		c-0.4,0.2-1.1,0.4-1.9,0.5c-1.1,0.1-1.9,0.2-2.3,0.2h-8.7L49.4,912.4z M54.5,918.9h2.2c0.8,0,1.3-0.1,1.6-0.4s0.5-0.7,0.5-1.2
		s-0.2-0.8-0.5-1.1s-0.8-0.4-1.6-0.4h-2.2V918.9z M54.5,925.3h2.6c0.9,0,1.5-0.2,1.8-0.5c0.4-0.3,0.5-0.7,0.5-1.2s-0.2-0.9-0.5-1.2
		c-0.4-0.3-1-0.4-1.9-0.4h-2.6L54.5,925.3z"/>
</g>
<g id="text10219" transform="matrix(0.98931535,-0.50940549,0.41139519,0.79896974,0,0)">
	<path id="path10259" class="st16" d="M151.4,931h-5.8l-0.8,2.7h-5.2l6.2-16.4h5.5l6.2,16.4h-5.3L151.4,931z M150.3,927.5l-1.8-5.9
		l-1.8,5.9H150.3z"/>
</g>
<g id="text10227" transform="matrix(1.3300285,-0.63430124,0.29212783,0.61254548,2.5253814,-4.0406102)">
	<path id="path10245" class="st17" d="M-56.6,1264.8l1.3-0.1c0.1,0.5,0.2,1,0.4,1.3s0.6,0.6,1.1,0.8c0.5,0.2,1,0.3,1.6,0.3
		c0.5,0,1-0.1,1.4-0.2s0.7-0.4,0.9-0.6c0.2-0.3,0.3-0.6,0.3-0.9s-0.1-0.6-0.3-0.9c-0.2-0.2-0.5-0.5-0.9-0.6
		c-0.3-0.1-0.9-0.3-1.9-0.5s-1.6-0.5-2-0.7c-0.5-0.3-0.9-0.6-1.1-1c-0.2-0.4-0.4-0.8-0.4-1.3s0.2-1,0.5-1.5s0.7-0.8,1.3-1.1
		c0.6-0.2,1.2-0.4,1.9-0.4c0.8,0,1.5,0.1,2.1,0.4s1.1,0.6,1.4,1.1c0.3,0.5,0.5,1,0.5,1.7l-1.3,0.1c-0.1-0.7-0.3-1.2-0.7-1.5
		s-1-0.5-1.8-0.5s-1.5,0.2-1.8,0.5s-0.6,0.7-0.6,1.1s0.1,0.7,0.4,0.9c0.3,0.2,1,0.5,2.1,0.8s1.9,0.5,2.3,0.7
		c0.6,0.3,1.1,0.6,1.4,1.1c0.3,0.4,0.4,0.9,0.4,1.5s-0.2,1.1-0.5,1.6s-0.8,0.9-1.4,1.2c-0.6,0.3-1.3,0.4-2,0.4c-1,0-1.8-0.1-2.4-0.4
		c-0.6-0.3-1.1-0.7-1.5-1.3C-56.4,1266.1-56.6,1265.5-56.6,1264.8L-56.6,1264.8z"/>
	<path id="path10247" class="st17" d="M-43.6,1268.1v-9.3h-3.5v-1.2h8.3v1.2h-3.5v9.3H-43.6z"/>
	<path id="path10249" class="st17" d="M-38.5,1268.1l4-10.5h1.5l4.3,10.5h-1.6l-1.2-3.2h-4.4l-1.2,3.2H-38.5z M-35.4,1263.8h3.6
		l-1.1-2.9c-0.3-0.9-0.6-1.6-0.7-2.2c-0.1,0.7-0.3,1.3-0.6,2L-35.4,1263.8z"/>
	<path id="path10251" class="st17" d="M-27.5,1268.1l0-10.5h4.7c0.9,0,1.7,0.1,2.1,0.3c0.4,0.2,0.9,0.5,1.2,1c0.3,0.5,0.4,1,0.4,1.6
		c0,0.7-0.2,1.4-0.7,1.9s-1.2,0.8-2.2,1c0.4,0.2,0.6,0.4,0.8,0.5c0.4,0.4,0.8,0.8,1.2,1.4l1.8,2.9H-20l-1.4-2.2
		c-0.4-0.6-0.7-1.1-1-1.5c-0.3-0.3-0.5-0.6-0.7-0.7s-0.4-0.2-0.6-0.3c-0.2,0-0.4-0.1-0.8-0.1h-1.6v4.7L-27.5,1268.1z M-26.1,1262.3
		h3c0.6,0,1.1-0.1,1.5-0.2s0.6-0.3,0.8-0.6s0.3-0.6,0.3-0.9c0-0.5-0.2-0.9-0.5-1.2c-0.4-0.3-0.9-0.5-1.7-0.5H-26L-26.1,1262.3z"/>
	<path id="path10253" class="st17" d="M-14.2,1268.1l0-9.3h-3.5v-1.2h8.3l0,1.2h-3.5l0,9.3H-14.2z"/>
</g>
<g id="text10261" transform="scale(0.98465856,1.0155805)">
	<path id="path10266" class="st18" d="M217.6,102.8V93h3.4c0.8,0,1.3,0,1.8,0.1c0.6,0.1,1,0.4,1.4,0.7c0.5,0.4,0.9,1,1.2,1.7
		s0.4,1.5,0.4,2.3c0,0.7-0.1,1.4-0.3,2s-0.4,1.1-0.7,1.4c-0.3,0.4-0.6,0.7-0.9,0.9c-0.3,0.2-0.7,0.4-1.2,0.5s-1,0.2-1.6,0.2
		C221.1,102.8,217.6,102.8,217.6,102.8z M218.9,101.6h2.1c0.6,0,1.2-0.1,1.5-0.2c0.4-0.1,0.7-0.3,0.9-0.5c0.3-0.3,0.5-0.7,0.7-1.2
		s0.3-1.2,0.3-1.9c0-1-0.2-1.8-0.5-2.4s-0.7-0.9-1.2-1.1c-0.3-0.1-0.9-0.2-1.7-0.2h-2.1V101.6z"/>
	<path id="path10268" class="st18" d="M227.1,98c0-1.6,0.4-2.9,1.3-3.8c0.9-0.9,2-1.4,3.4-1.4c0.9,0,1.7,0.2,2.5,0.7
		c0.7,0.4,1.3,1,1.7,1.8s0.6,1.7,0.6,2.6c0,1-0.2,1.9-0.6,2.7c-0.4,0.8-1,1.4-1.7,1.8s-1.5,0.6-2.4,0.6s-1.8-0.2-2.5-0.7
		c-0.7-0.4-1.3-1.1-1.7-1.8S227.1,98.9,227.1,98L227.1,98z M228.5,98c0,1.2,0.3,2.1,1,2.8c0.6,0.7,1.4,1,2.4,1s1.8-0.3,2.4-1
		s0.9-1.7,0.9-2.9c0-0.8-0.1-1.5-0.4-2.1c-0.3-0.6-0.7-1.1-1.2-1.4s-1.1-0.5-1.8-0.5c-0.9,0-1.7,0.3-2.4,0.9
		C228.8,95.5,228.5,96.5,228.5,98L228.5,98z"/>
	<path id="path10270" class="st18" d="M240.7,102.8v-8.7h-3.2V93h7.8v1.2H242v8.7L240.7,102.8L240.7,102.8z"/>
	<path id="path10272" class="st18" d="M250.4,102.8V93h2l2.3,7c0.2,0.6,0.4,1.1,0.5,1.5c0.1-0.4,0.3-0.9,0.5-1.6L258,93h1.8v9.8
		h-1.3v-8.2l-2.9,8.2h-1.2l-2.8-8.4v8.4H250.4z"/>
	<path id="path10274" class="st18" d="M260.8,102.8l3.8-9.8h1.4l4,9.8h-1.5l-1.1-3h-4.1l-1.1,3H260.8z M263.6,98.8h3.3l-1-2.7
		c-0.3-0.8-0.5-1.5-0.7-2c-0.1,0.6-0.3,1.3-0.5,1.9L263.6,98.8z"/>
	<path id="path10276" class="st18" d="M273.6,102.8v-8.7h-3.2V93h7.8v1.2h-3.3v8.7L273.6,102.8L273.6,102.8z"/>
	<path id="path10278" class="st18" d="M279.5,102.8V93h4.4c0.9,0,1.5,0.1,2,0.3c0.5,0.2,0.8,0.5,1.1,0.9c0.3,0.4,0.4,0.9,0.4,1.5
		c0,0.7-0.2,1.3-0.7,1.8s-1.2,0.8-2.1,0.9c0.3,0.2,0.6,0.3,0.8,0.5c0.4,0.3,0.7,0.8,1.1,1.3l1.7,2.7h-1.6l-1.3-2
		c-0.4-0.6-0.7-1-0.9-1.4s-0.5-0.5-0.7-0.7c-0.2-0.1-0.4-0.2-0.6-0.3c-0.1,0-0.4,0-0.7,0h-1.5v4.4L279.5,102.8z M280.8,97.3h2.8
		c0.6,0,1.1-0.1,1.4-0.2s0.6-0.3,0.8-0.6c0.2-0.3,0.3-0.6,0.3-0.9c0-0.5-0.2-0.8-0.5-1.1c-0.3-0.3-0.9-0.4-1.6-0.4h-3.1L280.8,97.3
		L280.8,97.3z"/>
	<path id="path10280" class="st18" d="M289.6,102.8V93h1.3v9.8H289.6z"/>
	<path id="path10282" class="st18" d="M292.2,102.8l3.8-5.1l-3.4-4.7h1.6l1.8,2.5c0.4,0.5,0.6,0.9,0.8,1.2c0.2-0.4,0.5-0.7,0.8-1.1
		l2-2.6h1.4l-3.5,4.6l3.7,5.2h-1.6l-2.5-3.5c-0.1-0.2-0.3-0.4-0.4-0.7c-0.2,0.4-0.4,0.6-0.5,0.7l-2.5,3.4L292.2,102.8z"/>
	<path id="path10284" class="st18" d="M307.9,102.8l-2.6-9.8h1.3l1.5,6.5c0.2,0.7,0.3,1.3,0.4,2c0.3-1.1,0.4-1.7,0.4-1.8l1.9-6.6
		h1.6l1.4,5c0.4,1.2,0.6,2.4,0.8,3.5c0.1-0.6,0.3-1.3,0.5-2.1l1.5-6.3h1.3l-2.7,9.8H314l-2.1-7.5c-0.2-0.6-0.3-1-0.3-1.2
		c-0.1,0.5-0.2,0.8-0.3,1.2l-2.1,7.5L307.9,102.8z"/>
	<path id="path10286" class="st18" d="M319.4,102.8V93h1.3v9.8H319.4z"/>
	<path id="path10288" class="st18" d="M325.5,102.8v-8.7h-3.2V93h7.8v1.2h-3.3v8.7L325.5,102.8L325.5,102.8z"/>
	<path id="path10290" class="st18" d="M331.5,102.8V93h1.3v4h5.1v-4h1.3v9.8h-1.3v-4.6h-5.1v4.6H331.5z"/>
	<path id="path10292" class="st18" d="M344.7,99.6l1.2-0.1c0.1,0.5,0.2,0.9,0.4,1.2c0.2,0.3,0.5,0.6,1,0.8c0.4,0.2,1,0.3,1.5,0.3
		s0.9-0.1,1.3-0.2s0.7-0.4,0.8-0.6c0.2-0.3,0.3-0.5,0.3-0.8s-0.1-0.6-0.3-0.8c-0.2-0.2-0.5-0.4-0.9-0.6c-0.3-0.1-0.8-0.3-1.8-0.5
		c-0.9-0.2-1.5-0.4-1.9-0.6c-0.5-0.2-0.8-0.6-1.1-0.9c-0.2-0.4-0.3-0.8-0.3-1.2c0-0.5,0.1-1,0.4-1.4s0.7-0.8,1.2-1s1.1-0.3,1.8-0.3
		c0.7,0,1.4,0.1,1.9,0.4c0.6,0.2,1,0.6,1.3,1c0.3,0.5,0.5,1,0.5,1.6l-1.2,0.1c-0.1-0.6-0.3-1.1-0.7-1.4c-0.4-0.3-1-0.5-1.7-0.5
		c-0.8,0-1.4,0.1-1.7,0.4c-0.4,0.3-0.5,0.6-0.5,1s0.1,0.6,0.4,0.9c0.3,0.2,0.9,0.5,2,0.7s1.8,0.4,2.2,0.6c0.6,0.3,1,0.6,1.3,1
		s0.4,0.9,0.4,1.4s-0.1,1-0.4,1.5s-0.7,0.8-1.3,1.1c-0.6,0.3-1.2,0.4-1.9,0.4c-0.9,0-1.6-0.1-2.2-0.4s-1.1-0.7-1.4-1.2
		C344.9,100.9,344.7,100.3,344.7,99.6L344.7,99.6z"/>
	<path id="path10294" class="st18" d="M356.9,102.8v-8.7h-3.2V93h7.8v1.2h-3.3v8.7L356.9,102.8L356.9,102.8z"/>
	<path id="path10296" class="st18" d="M362.8,102.8V93h7.1v1.2h-5.8v3h5.4v1.2h-5.4v3.4h6v1.2L362.8,102.8z"/>
	<path id="path10298" class="st18" d="M372,102.8V93h4.4c0.9,0,1.5,0.1,2,0.3c0.5,0.2,0.8,0.5,1.1,0.9c0.3,0.4,0.4,0.9,0.4,1.5
		c0,0.7-0.2,1.3-0.7,1.8s-1.2,0.8-2.1,0.9c0.3,0.2,0.6,0.3,0.8,0.5c0.4,0.3,0.7,0.8,1.1,1.3l1.7,2.7H379l-1.3-2
		c-0.4-0.6-0.7-1-0.9-1.4s-0.5-0.5-0.7-0.7c-0.2-0.1-0.4-0.2-0.6-0.3c-0.1,0-0.4,0-0.7,0h-1.5v4.4L372,102.8z M373.3,97.3h2.8
		c0.6,0,1.1-0.1,1.4-0.2s0.6-0.3,0.8-0.6c0.2-0.3,0.3-0.6,0.3-0.9c0-0.5-0.2-0.8-0.5-1.1c-0.3-0.3-0.9-0.4-1.6-0.4h-3.1L373.3,97.3
		L373.3,97.3z"/>
	<path id="path10300" class="st18" d="M381.9,102.8V93h7.1v1.2h-5.8v3h5.4v1.2h-5.4v3.4h6v1.2L381.9,102.8z"/>
	<path id="path10302" class="st18" d="M390.7,98c0-1.6,0.4-2.9,1.3-3.8s2-1.4,3.4-1.4c0.9,0,1.7,0.2,2.5,0.7c0.7,0.4,1.3,1,1.7,1.8
		c0.4,0.8,0.6,1.7,0.6,2.6c0,1-0.2,1.9-0.6,2.7c-0.4,0.8-1,1.4-1.7,1.8s-1.5,0.6-2.4,0.6s-1.8-0.2-2.5-0.7c-0.7-0.4-1.3-1.1-1.7-1.8
		C390.8,99.7,390.7,98.9,390.7,98L390.7,98z M392,98c0,1.2,0.3,2.1,1,2.8c0.6,0.7,1.4,1,2.4,1s1.8-0.3,2.4-1s0.9-1.7,0.9-2.9
		c0-0.8-0.1-1.5-0.4-2.1s-0.7-1.1-1.2-1.4s-1.1-0.5-1.8-0.5c-0.9,0-1.7,0.3-2.4,0.9C392.3,95.5,392,96.5,392,98z"/>
	<path id="path10304" class="st18" d="M405.1,99.6l1.2-0.1c0.1,0.5,0.2,0.9,0.4,1.2c0.2,0.3,0.5,0.6,1,0.8c0.4,0.2,1,0.3,1.5,0.3
		s0.9-0.1,1.3-0.2s0.7-0.4,0.8-0.6c0.2-0.3,0.3-0.5,0.3-0.8s-0.1-0.6-0.3-0.8c-0.2-0.2-0.5-0.4-0.9-0.6c-0.3-0.1-0.8-0.3-1.8-0.5
		c-0.9-0.2-1.5-0.4-1.9-0.6c-0.5-0.2-0.8-0.6-1.1-0.9c-0.2-0.4-0.3-0.8-0.3-1.2c0-0.5,0.1-1,0.4-1.4s0.7-0.8,1.2-1s1.1-0.3,1.8-0.3
		c0.7,0,1.4,0.1,1.9,0.4c0.6,0.2,1,0.6,1.3,1c0.3,0.5,0.5,1,0.5,1.6l-1.2,0.1c-0.1-0.6-0.3-1.1-0.7-1.4c-0.4-0.3-1-0.5-1.7-0.5
		c-0.8,0-1.4,0.1-1.7,0.4c-0.4,0.3-0.5,0.6-0.5,1s0.1,0.6,0.4,0.9c0.3,0.2,0.9,0.5,2,0.7s1.8,0.4,2.2,0.6c0.6,0.3,1,0.6,1.3,1
		s0.4,0.9,0.4,1.4s-0.1,1-0.4,1.5s-0.7,0.8-1.3,1.1c-0.6,0.3-1.2,0.4-1.9,0.4c-0.9,0-1.6-0.1-2.2-0.4s-1.1-0.7-1.4-1.2
		C405.3,100.9,405.1,100.3,405.1,99.6L405.1,99.6z"/>
	<path id="path10306" class="st18" d="M414.3,98c0-1.6,0.4-2.9,1.3-3.8s2-1.4,3.4-1.4c0.9,0,1.7,0.2,2.5,0.7c0.7,0.4,1.3,1,1.7,1.8
		c0.4,0.8,0.6,1.7,0.6,2.6c0,1-0.2,1.9-0.6,2.7c-0.4,0.8-1,1.4-1.7,1.8s-1.5,0.6-2.4,0.6s-1.8-0.2-2.5-0.7c-0.7-0.4-1.3-1.1-1.7-1.8
		C414.5,99.7,414.3,98.9,414.3,98L414.3,98z M415.7,98c0,1.2,0.3,2.1,1,2.8c0.6,0.7,1.4,1,2.4,1s1.8-0.3,2.4-1s0.9-1.7,0.9-2.9
		c0-0.8-0.1-1.5-0.4-2.1s-0.7-1.1-1.2-1.4s-1.1-0.5-1.8-0.5c-0.9,0-1.7,0.3-2.4,0.9C416,95.5,415.7,96.5,415.7,98z"/>
	<path id="path10308" class="st18" d="M431.9,93h1.3v5.7c0,1-0.1,1.8-0.3,2.4s-0.6,1.1-1.2,1.4c-0.6,0.4-1.4,0.5-2.3,0.5
		s-1.7-0.2-2.3-0.5c-0.6-0.3-1-0.8-1.3-1.4s-0.4-1.4-0.4-2.5V93h1.3v5.7c0,0.9,0.1,1.5,0.2,1.9c0.2,0.4,0.4,0.7,0.8,0.9
		c0.4,0.2,0.9,0.3,1.4,0.3c1,0,1.6-0.2,2-0.7c0.4-0.4,0.6-1.3,0.6-2.5L431.9,93z"/>
	<path id="path10310" class="st18" d="M435.4,102.8V93h1.3l5.2,7.7V93h1.2v9.8h-1.3l-5.2-7.7v7.7H435.4z"/>
	<path id="path10312" class="st18" d="M445.3,102.8V93h3.4c0.8,0,1.3,0,1.8,0.1c0.6,0.1,1,0.4,1.4,0.7c0.5,0.4,0.9,1,1.2,1.7
		c0.3,0.7,0.4,1.5,0.4,2.3c0,0.7-0.1,1.4-0.3,2c-0.2,0.6-0.4,1.1-0.7,1.4c-0.3,0.4-0.6,0.7-0.9,0.9s-0.7,0.4-1.2,0.5s-1,0.2-1.6,0.2
		C448.8,102.8,445.3,102.8,445.3,102.8z M446.6,101.6h2.1c0.6,0,1.2-0.1,1.5-0.2c0.4-0.1,0.7-0.3,0.9-0.5c0.3-0.3,0.5-0.7,0.7-1.2
		s0.3-1.2,0.3-1.9c0-1-0.2-1.8-0.5-2.4s-0.7-0.9-1.2-1.1c-0.3-0.1-0.9-0.2-1.7-0.2h-2.1L446.6,101.6L446.6,101.6z"/>
</g>
<g>
	<path d="M152.3,481.3c-1,0.4-3.1,1-5.6,1c-2.7,0-5-0.7-6.8-2.3c-1.6-1.5-2.5-3.8-2.5-6.5c0-5.2,3.7-9,9.8-9c2.1,0,3.7,0.4,4.5,0.8
		l-0.6,1.8c-1-0.4-2.2-0.8-4-0.8c-4.4,0-7.3,2.6-7.3,7c0,4.4,2.8,7,7,7c1.5,0,2.6-0.2,3.1-0.5v-5.2h-3.7v-1.8h6V481.3z"/>
	<path d="M155.5,479.3c1,0.6,2.6,1.1,4.2,1.1c2.4,0,3.8-1.2,3.8-3c0-1.6-1-2.6-3.4-3.5c-3-1-4.8-2.5-4.8-4.9c0-2.7,2.3-4.7,5.9-4.7
		c1.9,0,3.2,0.4,4,0.9l-0.6,1.8c-0.6-0.3-1.8-0.8-3.4-0.8c-2.5,0-3.4,1.4-3.4,2.6c0,1.6,1.1,2.4,3.6,3.4c3.1,1.1,4.6,2.6,4.6,5.1
		c0,2.7-2.1,5-6.4,5c-1.7,0-3.7-0.5-4.6-1.1L155.5,479.3z"/>
	<path d="M168.8,479.3c1,0.6,2.6,1.1,4.2,1.1c2.4,0,3.8-1.2,3.8-3c0-1.6-1-2.6-3.4-3.5c-3-1-4.8-2.5-4.8-4.9c0-2.7,2.3-4.7,5.9-4.7
		c1.9,0,3.2,0.4,4,0.9l-0.6,1.8c-0.6-0.3-1.8-0.8-3.4-0.8c-2.5,0-3.4,1.4-3.4,2.6c0,1.6,1.1,2.4,3.6,3.4c3.1,1.1,4.6,2.6,4.6,5.1
		c0,2.7-2.1,5-6.4,5c-1.7,0-3.7-0.5-4.6-1.1L168.8,479.3z"/>
</g>
<g id="text10373">
	<path id="path10378" class="st16" d="M360.9,485.2v-9.9h-3.7V474h8.9v1.3h-3.7v9.9L360.9,485.2L360.9,485.2z"/>
	<path id="path10380" class="st16" d="M367.6,485.2V474h2.2l2.7,7.9c0.2,0.7,0.4,1.3,0.5,1.7c0.1-0.4,0.3-1,0.6-1.8l2.7-7.8h2v11.2
		h-1.4v-9.4l-3.3,9.4h-1.3l-3.2-9.5v9.5L367.6,485.2z"/>
</g>
<rect x="107.4" y="572" width="35.4" height="35.4"/>
<g id="use10182_2_" transform="translate(-28.284271,15.152288)">
	<g id="use10180_3_" transform="translate(-27.779195,15.657364)">
		<g id="use10178_1_" transform="translate(-27.274118,15.657365)">
			<g id="use10176_1_" transform="translate(139.90613,-77.27667)">
				
					<radialGradient id="rect10174_8_" cx="354.2066" cy="252.9022" r="46.2298" gradientTransform="matrix(0.5077 0.8615 -0.1149 6.769771e-02 260.7635 532.926)" gradientUnits="userSpaceOnUse">
					<stop  offset="0" style="stop-color:#555753"/>
					<stop  offset="1" style="stop-color:#3C3D3B"/>
				</radialGradient>
				<path id="rect10174_1_" class="st19" d="M396.5,817.6l40.7,69c1.7,2.9,0.8,6.7-2.2,8.4l0,0c-2.9,1.7-6.7,0.8-8.4-2.2l-40.7-69
					c-1.7-2.9-0.8-6.7,2.2-8.4l0,0C391,813.7,394.8,814.6,396.5,817.6z"/>
			</g>
		</g>
	</g>
</g>
<g id="use10182_3_" transform="translate(-28.284271,15.152288)">
	<g id="use10180_4_" transform="translate(-27.779195,15.657364)">
		<g id="use10178_4_" transform="translate(-27.274118,15.657365)">
			<g id="use10176_2_" transform="translate(139.90613,-77.27667)">
				
					<radialGradient id="rect10174_9_" cx="355.0296" cy="34.5893" r="46.2298" gradientTransform="matrix(0.5077 0.8615 -0.1149 6.769771e-02 260.7635 532.926)" gradientUnits="userSpaceOnUse">
					<stop  offset="0" style="stop-color:#555753"/>
					<stop  offset="1" style="stop-color:#3C3D3B"/>
				</radialGradient>
				<path id="rect10174_2_" class="st20" d="M422,803.5l40.7,69c1.7,2.9,0.8,6.7-2.2,8.4l0,0c-2.9,1.7-6.7,0.8-8.4-2.2l-40.7-69
					c-1.7-2.9-0.8-6.7,2.2-8.4l0,0C416.5,799.6,420.3,800.5,422,803.5z"/>
			</g>
		</g>
	</g>
</g>
<rect x="108.3" y="665.4" width="35.4" height="35.4"/>
<rect x="64.1" y="617.5" width="35.4" height="35.4"/>
<rect x="150.4" y="617.5" width="35.4" height="35.4"/>
<g>
	<path class="st17" d="M202.1,473.8l4.9,0.9c-1,3.3-2.4,5.8-4.3,7.4c-1.9,1.6-4.1,2.5-6.6,2.5c-2.8,0-5-1-6.7-3.1s-2.5-5.1-2.5-9.2
		c0-3.5,0.6-6.6,1.8-9.3s2.7-4.7,4.6-6c1.9-1.3,3.9-2,6-2c2.4,0,4.5,0.8,6.1,2.4s2.6,3.9,2.9,6.9l-4.6,0.5c-0.3-1.7-0.8-2.9-1.5-3.7
		c-0.7-0.7-1.7-1.1-2.9-1.1c-1.2,0-2.4,0.4-3.5,1.3c-1.1,0.9-2.1,2.3-2.9,4.4s-1.2,4.3-1.2,6.8c0,2.3,0.5,4.1,1.4,5.3s2,1.8,3.3,1.8
		c1.2,0,2.4-0.5,3.4-1.5C200.8,477.2,201.6,475.8,202.1,473.8z"/>
	<path class="st17" d="M210.3,472.9c0-2.5,0.4-5,1.2-7.6c1.1-3.3,2.6-5.9,4.7-7.6s4.5-2.6,7.2-2.6c2.8,0,5.1,1.1,7,3.2
		c1.8,2.1,2.7,5.1,2.7,8.8c0,3.4-0.7,6.4-2,9.3s-2.9,4.9-4.9,6.3c-1.9,1.4-4.1,2-6.4,2c-2.8,0-5-1-6.6-2.9
		C211.3,479.3,210.3,476.4,210.3,472.9z M215.1,472.7c0,2.1,0.5,3.8,1.5,5c1,1.3,2.3,1.9,3.8,1.9c1.2,0,2.4-0.5,3.5-1.4
		s2.2-2.5,3.1-4.6c0.9-2.1,1.3-4.3,1.3-6.5c0-2.3-0.5-4.1-1.6-5.5c-0.9-1.2-2.2-1.8-3.7-1.8c-1.2,0-2.4,0.5-3.6,1.4
		c-1.2,0.9-2.2,2.5-3.1,4.6C215.5,468,215.1,470.3,215.1,472.7z"/>
	<path class="st17" d="M234.4,484.1l4.9-28.6h6.3c2.2,0,3.7,0.1,4.5,0.3c1.3,0.3,2.5,1,3.5,1.9s1.8,2.2,2.3,3.8
		c0.6,1.6,0.9,3.5,0.9,5.8c0,2.4-0.3,4.6-0.9,6.6c-0.6,2-1.4,3.8-2.5,5.3c-1.1,1.5-2.2,2.6-3.3,3.3c-1.1,0.7-2.3,1.1-3.5,1.4
		c-0.8,0.2-2.1,0.3-3.9,0.3H234.4z M240,479.5h2.4c1.8,0,3-0.1,3.7-0.4c0.9-0.3,1.8-1,2.6-1.9c0.8-1,1.5-2.3,2.1-4
		c0.6-1.7,0.9-3.7,0.9-6c0-1.9-0.2-3.3-0.7-4.4c-0.5-1.1-1.1-1.8-2-2.2c-0.6-0.3-1.6-0.4-3.1-0.4h-2.8L240,479.5z"/>
	<path class="st17" d="M258,484.1l4.9-28.6h17.4l-0.8,4.8h-12.5l-1.1,6.5h12.1l-0.8,4.8h-12.1l-1.3,7.8h13.5l-0.8,4.8H258z"/>
	<path class="st17" d="M288.9,484.1l4.9-28.6h8c2.1,0,3.7,0.1,4.6,0.4c1.4,0.4,2.5,1.2,3.3,2.3c0.8,1.1,1.2,2.5,1.2,4.2
		c0,1.7-0.4,3.1-1.1,4.2c-0.7,1.1-1.9,2-3.3,2.6c1.2,0.4,2.1,1.1,2.8,2.1c0.7,1,1,2.2,1,3.5c0,1.8-0.4,3.5-1.3,5
		c-0.8,1.5-1.9,2.6-3.3,3.2c-1.3,0.7-3.3,1-5.7,1H288.9z M294.5,479.5h4.6c1.8,0,3.1-0.1,3.7-0.4c0.7-0.3,1.2-0.7,1.7-1.4
		c0.5-0.7,0.7-1.5,0.7-2.3c0-1-0.3-1.8-0.9-2.4s-1.5-0.9-2.8-0.9h-5.8L294.5,479.5z M296.7,467h3.7c1.6,0,2.8-0.1,3.5-0.4
		c0.7-0.3,1.3-0.7,1.7-1.3c0.4-0.6,0.6-1.4,0.6-2.2c0-0.7-0.1-1.2-0.4-1.7c-0.3-0.5-0.7-0.8-1.1-0.9c-0.5-0.2-1.4-0.2-2.9-0.2h-3.7
		L296.7,467z"/>
	<path class="st17" d="M314,472.9c0-2.5,0.4-5,1.2-7.6c1.1-3.3,2.6-5.9,4.7-7.6c2.1-1.7,4.5-2.6,7.2-2.6c2.8,0,5.1,1.1,7,3.2
		c1.8,2.1,2.7,5.1,2.7,8.8c0,3.4-0.7,6.4-2,9.3s-2.9,4.9-4.9,6.3c-1.9,1.4-4.1,2-6.4,2c-2.8,0-5-1-6.6-2.9
		C314.9,479.3,314,476.4,314,472.9z M318.7,472.7c0,2.1,0.5,3.8,1.5,5c1,1.3,2.3,1.9,3.8,1.9c1.2,0,2.4-0.5,3.5-1.4
		c1.2-0.9,2.2-2.5,3-4.6s1.3-4.3,1.3-6.5c0-2.3-0.5-4.1-1.6-5.5c-0.9-1.2-2.2-1.8-3.7-1.8c-1.2,0-2.4,0.5-3.6,1.4s-2.2,2.5-3,4.6
		S318.7,470.3,318.7,472.7z"/>
	<path class="st17" d="M349.7,484.1h-4.8l2-11.1l-6.5-17.4h5.1l2.9,8.1c0.7,1.9,1.2,3.3,1.4,4.2c0.4-0.9,0.9-1.8,1.4-2.7l2.2-3.7
		l3.4-5.8h5.6l-10.8,18L349.7,484.1z"/>
</g>
<g>
	<path class="st17" d="M193,811.6l-3.1-6.3l11.3-5.5l0.4,0.7l-9.2,4.5l0.9,1.9l8.6-4.2l0.4,0.7l-8.6,4.2l1.1,2.2l9.6-4.7l0.4,0.7
		L193,811.6z"/>
	<path class="st17" d="M205.8,803.1l1.8-1c0.3,0.5,0.7,0.7,1.2,0.7c0.5,0,1.1-0.2,1.8-0.5c0.5-0.2,0.9-0.5,1.2-0.8
		c0.3-0.3,0.5-0.5,0.6-0.7c0.1-0.3,0-0.6-0.1-1l-2.1-4.4l2.1-1l2.1,4.3c0.4,0.8,0.3,1.5-0.3,2.2c-0.6,0.7-1.6,1.4-3,2.1
		c-1.4,0.7-2.4,1-3.3,1.1C206.7,804.1,206.1,803.8,205.8,803.1z"/>
	<path class="st17" d="M219,798.9l-3.1-6.3l11.3-5.5l0.4,0.7l-9.2,4.5l0.9,1.9l8.6-4.2l0.4,0.7l-8.6,4.2l1,2.2l9.6-4.7l0.4,0.7
		L219,798.9z"/>
	<path class="st17" d="M243.7,784.1l2.2-0.8c-0.1,0.9-0.7,1.9-1.6,2.8c-1,0.9-2.3,1.8-3.9,2.6c-1.4,0.7-2.7,1.2-3.9,1.5
		s-2.2,0.3-3.1,0.1c-0.9-0.2-1.5-0.7-1.9-1.4c-0.3-0.7-0.3-1.4,0.1-2.2c0.4-0.8,1.1-1.6,2.1-2.4s2.2-1.5,3.6-2.2
		c1.5-0.7,2.9-1.2,4.1-1.4s2.2-0.1,2.9,0.3l-1.9,1.2c-1.1-0.5-2.7-0.3-4.8,0.7c-1,0.5-1.9,1-2.6,1.6s-1.2,1.1-1.4,1.7
		c-0.3,0.6-0.3,1.2,0,1.8c0.4,0.9,1.2,1.3,2.3,1.3c1.1,0,2.5-0.4,4-1.1c1.1-0.5,2-1.2,2.7-1.8S243.7,784.7,243.7,784.1z"/>
	<path class="st17" d="M253.7,781.9l-2.7-5.6l-5.1,2.5l-0.4-0.7l12.4-6l0.4,0.7l-5.2,2.5l2.7,5.6L253.7,781.9z"/>
</g>
</svg>
